<svg width="154" height="33" viewBox="0 0 154 33" fill="none" xmlns="http://www.w3.org/2000/svg">
<path d="M15.8376 8.97738C18.3 8.97738 20.2963 6.9677 20.2963 4.48863C20.2963 2.00956 18.3 -0.00012207 15.8376 -0.00012207C13.3751 -0.00012207 11.3789 2.00956 11.3789 4.48863C11.3789 6.9677 13.3751 8.97738 15.8376 8.97738Z" fill="#085C60"/>
<path d="M3.62936 13.9388C5.63381 13.9388 7.25873 12.3029 7.25873 10.285C7.25873 8.26699 5.63381 6.6311 3.62936 6.6311C1.62492 6.6311 0 8.26699 0 10.285C0 12.3029 1.62492 13.9388 3.62936 13.9388Z" fill="#085C60"/>
<path d="M13.6066 31.2042C11.3434 29.8307 5.15586 25.6478 2.15694 19.3605C0.932099 16.7931 1.8419 16.0029 3.02595 14.6294C3.85089 14.8681 4.76287 14.8153 5.59692 14.4119C6.43169 14.0086 7.04283 13.3251 7.37354 12.528C7.75924 12.5126 8.11616 12.491 8.4516 12.4906C8.40207 12.8749 8.3773 13.2936 8.3773 13.7534C8.3773 17.5129 9.24668 21.5546 10.9607 25.7666C11.8333 27.9101 12.7963 29.7706 13.6088 31.1914C13.6081 31.1951 13.607 31.2002 13.6066 31.2042Z" fill="#085C60"/>
<path d="M9.41309 13.7524C9.41309 10.2533 10.8379 9.86536 12.8745 8.97766C13.6623 9.6835 14.6996 10.1132 15.8378 10.1132C16.9759 10.1132 18.0128 9.68386 18.801 8.97766C20.8377 9.86536 22.2625 10.2537 22.2625 13.7524C22.2625 22.3215 17.6195 30.2668 15.8378 32.9999C14.0564 30.2668 9.41309 22.3218 9.41309 13.7524Z" fill="#085C60"/>
<path d="M29.5188 19.3605C26.5202 25.6481 20.3327 29.8307 18.0691 31.2042C18.0687 31.1995 18.068 31.1951 18.0669 31.1903C18.8787 29.7695 19.8424 27.909 20.7151 25.7655C22.4294 21.5535 23.2984 17.5118 23.2984 13.7523C23.2984 13.2925 23.2733 12.8738 23.2241 12.4895C23.5596 12.4895 23.9161 12.5115 24.3022 12.5269C24.6329 13.3244 25.244 14.0075 26.0788 14.4108C26.9136 14.8142 27.8248 14.867 28.6498 14.6283C29.8338 16.0029 30.7436 16.7935 29.5188 19.3605Z" fill="#085C60"/>
<path d="M28.0473 13.9388C30.0518 13.9388 31.6767 12.3029 31.6767 10.285C31.6767 8.26699 30.0518 6.6311 28.0473 6.6311C26.0429 6.6311 24.418 8.26699 24.418 10.285C24.418 12.3029 26.0429 13.9388 28.0473 13.9388Z" fill="#085C60"/>
<path d="M49.9965 23.8209C49.7097 24.2161 49.2153 24.5694 48.5134 24.881C47.8114 25.1925 47.0453 25.3483 46.215 25.3483C44.9319 25.3483 43.8186 25.0596 42.8751 24.482C41.9316 23.9045 41.2107 23.118 40.7126 22.1226C40.2144 21.1271 39.9653 20.0215 39.9653 18.8057C39.9653 17.5899 40.2144 16.4842 40.7126 15.4888C41.2107 14.4933 41.9316 13.7069 42.8751 13.1293C43.8186 12.5518 44.9319 12.2631 46.215 12.2631C47.0755 12.2631 47.8341 12.4113 48.4907 12.7076C49.1474 13.004 49.6493 13.3801 49.9965 13.836V7.84055H53.3478V25.0748H49.9965V23.8209ZM49.204 16.2411C48.5851 15.58 47.7548 15.2494 46.7132 15.2494C45.6565 15.2494 44.8224 15.58 44.211 16.2411C43.5997 16.9022 43.294 17.7571 43.294 18.8057C43.294 19.8239 43.6072 20.6674 44.2337 21.3361C44.8602 22.0048 45.6867 22.3392 46.7132 22.3392C47.7699 22.3392 48.6039 22.0238 49.2153 21.3931C49.8267 20.7624 50.1324 19.8999 50.1324 18.8057C50.1324 17.7571 49.8229 16.9022 49.204 16.2411ZM62.6318 15.8079C61.9827 15.9675 61.3864 16.3437 60.8429 16.9364C60.2995 17.5291 60.0277 18.3954 60.0277 19.5352V25.0748H56.6538V12.5366H60.0277V14.2008C60.5863 13.4561 61.2694 12.9508 62.077 12.6848C62.8846 12.4189 63.6206 12.2935 64.2848 12.3087V15.637C63.8319 15.5914 63.2809 15.6484 62.6318 15.8079ZM69.1192 24.7784C68.0852 24.3681 67.1983 23.6728 66.4586 22.6925C65.7189 21.7123 65.349 20.4318 65.349 18.8513C65.349 17.2707 65.7227 15.9941 66.4699 15.0215C67.2172 14.0488 68.1116 13.3573 69.1532 12.947C70.1948 12.5366 71.1836 12.3315 72.1195 12.3315C73.2064 12.3315 74.2405 12.5746 75.2217 13.061C76.203 13.5473 77.0068 14.2616 77.6333 15.2038C78.2598 16.1461 78.5881 17.2631 78.6183 18.5549C78.6183 18.9501 78.6108 19.292 78.5957 19.5808C78.5806 19.8695 78.5655 20.0519 78.5504 20.1279H68.723C68.9041 21.0094 69.357 21.6097 70.0816 21.9288C70.8062 22.248 71.4855 22.4076 72.1195 22.4076C72.9347 22.4076 73.5838 22.2594 74.0669 21.963C74.55 21.6667 74.9651 21.3285 75.3123 20.9486L77.939 22.4759C76.52 24.4212 74.5802 25.3939 72.1195 25.3939C71.1534 25.3939 70.1533 25.1887 69.1192 24.7784ZM69.8099 16.0131C69.2211 16.4766 68.889 17.0428 68.8135 17.7115H75.0406C74.9953 17.3163 74.8443 16.9364 74.5877 16.5716C74.3311 16.2069 73.9877 15.9067 73.5574 15.6712C73.1272 15.4356 72.6403 15.3178 72.0969 15.3178C71.161 15.3178 70.3986 15.5496 69.8099 16.0131ZM90.8007 23.8209C90.5139 24.2161 90.0195 24.5694 89.3175 24.881C88.6156 25.1925 87.8494 25.3483 87.0192 25.3483C85.736 25.3483 84.6227 25.0596 83.6792 24.482C82.7357 23.9045 82.0149 23.118 81.5167 22.1226C81.0186 21.1271 80.7695 20.0215 80.7695 18.8057C80.7695 17.5899 81.0186 16.4842 81.5167 15.4888C82.0149 14.4933 82.7357 13.7069 83.6792 13.1293C84.6227 12.5518 85.736 12.2631 87.0192 12.2631C87.8796 12.2631 88.6382 12.4113 89.2949 12.7076C89.9515 13.004 90.4535 13.3801 90.8007 13.836V12.5366H94.152V25.0748H90.8007V23.8209ZM90.0082 16.2411C89.3892 15.58 88.5589 15.2494 87.5173 15.2494C86.4606 15.2494 85.6266 15.58 85.0152 16.2411C84.4038 16.9022 84.0981 17.7571 84.0981 18.8057C84.0981 19.8239 84.4114 20.6674 85.0378 21.3361C85.6643 22.0048 86.4908 22.3392 87.5173 22.3392C88.574 22.3392 89.4081 22.0238 90.0195 21.3931C90.6309 20.7624 90.9365 19.8999 90.9365 18.8057C90.9365 17.7571 90.6271 16.9022 90.0082 16.2411ZM116.082 13.7221C116.935 14.6643 117.362 15.9789 117.362 17.6659V25.0748H113.943V17.6659C113.943 16.7692 113.72 16.1233 113.275 15.7282C112.829 15.333 112.244 15.1354 111.52 15.1354C110.916 15.1354 110.372 15.3634 109.889 15.8193C109.406 16.2753 109.157 17.0352 109.142 18.099V25.0748H105.723V17.6659C105.723 16.7692 105.5 16.1233 105.055 15.7282C104.61 15.333 104.032 15.1354 103.323 15.1354C102.674 15.1354 102.111 15.3786 101.636 15.8649C101.16 16.3513 100.922 17.2099 100.922 18.4409L100.9 25.0748H97.5259V12.5366H100.9V13.6765C101.338 13.2813 101.866 12.9546 102.485 12.6962C103.104 12.4379 103.67 12.3087 104.183 12.3087C105.934 12.3087 107.27 12.8786 108.191 14.0184C108.659 13.4865 109.24 13.0686 109.935 12.7646C110.629 12.4606 111.384 12.3087 112.199 12.3087C113.935 12.3087 115.23 12.7798 116.082 13.7221ZM120.872 25.0748V7.84055H124.223V13.836C124.57 13.3801 125.072 13.004 125.729 12.7076C126.385 12.4113 127.144 12.2631 128.004 12.2631C129.288 12.2631 130.401 12.5518 131.344 13.1293C132.288 13.7069 133.009 14.4933 133.507 15.4888C134.005 16.4842 134.254 17.5899 134.254 18.8057C134.254 20.0215 134.005 21.1271 133.507 22.1226C133.009 23.118 132.288 23.9045 131.344 24.482C130.401 25.0596 129.288 25.3483 128.004 25.3483C127.174 25.3483 126.408 25.1925 125.706 24.881C125.004 24.5694 124.51 24.2161 124.223 23.8209V25.0748H120.872ZM125.004 21.3931C125.616 22.0238 126.45 22.3392 127.506 22.3392C128.533 22.3392 129.359 22.0048 129.986 21.3361C130.612 20.6674 130.926 19.8239 130.926 18.8057C130.926 17.7571 130.62 16.9022 130.008 16.2411C129.397 15.58 128.563 15.2494 127.506 15.2494C126.465 15.2494 125.634 15.58 125.015 16.2411C124.397 16.9022 124.087 17.7571 124.087 18.8057C124.087 19.8999 124.393 20.7624 125.004 21.3931ZM140.187 10.6787C139.825 11.0359 139.387 11.2144 138.873 11.2144C138.345 11.2144 137.896 11.0359 137.526 10.6787C137.156 10.3216 136.971 9.88464 136.971 9.36791C136.971 8.86639 137.156 8.43706 137.526 8.07991C137.896 7.72276 138.345 7.54419 138.873 7.54419C139.387 7.54419 139.825 7.72276 140.187 8.07991C140.549 8.43706 140.73 8.86639 140.73 9.36791C140.73 9.88464 140.549 10.3216 140.187 10.6787ZM137.175 12.5594H140.572V25.0748H137.175V12.5594ZM143.946 7.84055H147.342V25.0748H143.946V7.84055ZM150.603 7.84055H154V25.0748H150.603V7.84055Z" fill="black"/>
</svg>
